<svg width="849.3" height="100.001" viewBox="0 0 849.3 100.001" xmlns="http://www.w3.org/2000/svg"><g id="svgGroup" stroke-linecap="round" fill-rule="evenodd" font-size="9pt" stroke="#204e4a" stroke-width="0.25mm" fill="#204e4a" style="stroke:#204e4a;stroke-width:0.25mm;fill:#204e4a"><path d="M 0 4.6 L 24.9 4.6 Q 40.4 4.6 47 9.2 A 14.705 14.705 0 0 1 53.439 19.81 A 20.188 20.188 0 0 1 53.6 22.4 Q 53.6 26.577 52.257 29.608 A 12.656 12.656 0 0 1 51.9 30.35 A 16.657 16.657 0 0 1 49.887 33.382 A 13.395 13.395 0 0 1 47.65 35.5 A 16.613 16.613 0 0 1 44.734 37.258 A 13.658 13.658 0 0 1 42.4 38.1 L 42.4 38.6 Q 45.3 39.3 48.2 41 A 12.713 12.713 0 0 1 51.738 44.117 A 16.325 16.325 0 0 1 53.05 46.05 A 12.722 12.722 0 0 1 54.313 49.16 Q 54.721 50.677 54.887 52.487 A 28.673 28.673 0 0 1 55 55.1 A 20.666 20.666 0 0 1 53.795 62.305 A 17.911 17.911 0 0 1 47.7 70.4 A 25.156 25.156 0 0 1 39.23 74.556 Q 34.198 76 27.8 76 L 0 76 L 0 4.6 Z M 25.7 46.1 L 19.3 46.1 L 19.3 61.1 L 26.1 61.1 Q 31.1 61.1 33.1 58.95 A 7.397 7.397 0 0 0 35.038 54.625 A 9.971 9.971 0 0 0 35.1 53.5 Q 35.1 50.6 33.1 48.35 A 5.494 5.494 0 0 0 31.125 46.98 Q 29.078 46.1 25.7 46.1 Z M 19.3 32 L 25.1 32 A 18.094 18.094 0 0 0 27.449 31.859 Q 30.022 31.521 31.441 30.372 A 4.704 4.704 0 0 0 31.85 30 Q 33.8 28 33.8 25.2 A 5.043 5.043 0 0 0 31.003 20.391 Q 28.755 19.2 24.7 19.2 L 19.3 19.2 L 19.3 32 Z" id="0"/><path d="M 101 20.7 L 120.1 20.7 L 120.1 76 L 105.7 76 L 103.3 69.1 L 102.2 69.1 Q 99.6 73.3 95.1 75.15 Q 90.6 77 85.5 77 A 24.051 24.051 0 0 1 79.44 76.26 A 20.77 20.77 0 0 1 75.7 74.9 A 15.537 15.537 0 0 1 68.932 68.613 A 18.931 18.931 0 0 1 68.75 68.3 A 18.028 18.028 0 0 1 66.963 63.688 Q 66.2 60.583 66.2 56.7 L 66.2 20.7 L 85.3 20.7 L 85.3 50.9 A 30.193 30.193 0 0 0 85.437 53.877 Q 85.735 56.874 86.682 58.78 A 8.155 8.155 0 0 0 86.85 59.1 Q 88.4 61.9 91.9 61.9 A 10.141 10.141 0 0 0 94.691 61.542 A 6.639 6.639 0 0 0 99.15 57.5 Q 100.825 53.516 100.983 46.416 A 68.027 68.027 0 0 0 101 44.9 L 101 20.7 Z" id="1"/><path d="M 165.7 27.8 L 166.1 27.8 A 28.164 28.164 0 0 1 165.865 26.331 Q 165.622 24.544 165.45 22 A 107.424 107.424 0 0 1 165.201 15.238 A 98.543 98.543 0 0 1 165.2 14.8 L 165.2 0 L 184.4 0 L 184.4 76 L 170 76 L 165.9 69 L 165.2 69 A 17.67 17.67 0 0 1 160.808 73.853 A 21.011 21.011 0 0 1 159.7 74.65 A 12.871 12.871 0 0 1 155.793 76.375 Q 154.101 76.824 152.107 76.951 A 25.431 25.431 0 0 1 150.5 77 A 16.554 16.554 0 0 1 137.884 71.411 A 22.952 22.952 0 0 1 136.45 69.7 Q 130.9 62.4 130.9 48.4 Q 130.9 39.504 133.117 33.336 A 22.904 22.904 0 0 1 136.55 26.95 A 19.161 19.161 0 0 1 142.246 21.931 Q 146.208 19.7 151.2 19.7 A 22.202 22.202 0 0 1 154.784 19.972 Q 156.714 20.288 158.285 20.972 A 11.157 11.157 0 0 1 160.15 22 Q 163.5 24.3 165.7 27.8 Z M 166.8 50.1 L 166.8 48.6 Q 166.8 42.1 164.95 38.6 A 6.236 6.236 0 0 0 160.663 35.377 Q 159.506 35.1 158.1 35.1 A 6.227 6.227 0 0 0 153.45 37.155 A 9.687 9.687 0 0 0 152.45 38.4 A 10.517 10.517 0 0 0 151.169 41.106 Q 150.332 43.696 150.218 47.474 A 40.54 40.54 0 0 0 150.2 48.7 Q 150.2 54.799 151.958 57.968 A 8.121 8.121 0 0 0 152.45 58.75 A 8.138 8.138 0 0 0 154.327 60.67 A 6.66 6.66 0 0 0 158.3 61.9 A 11.441 11.441 0 0 0 160.674 61.671 Q 163.434 61.084 164.8 59 A 9.772 9.772 0 0 0 165.894 56.64 Q 166.65 54.299 166.779 50.877 A 36.971 36.971 0 0 0 166.8 50.1 Z" id="2"/><path d="M 230.4 27.5 L 230.8 27.5 L 232.2 20.7 L 248.7 20.7 L 248.7 76.1 Q 248.7 87.8 241.45 93.9 A 22.478 22.478 0 0 1 234.321 97.835 Q 231.035 98.985 226.973 99.524 A 59.245 59.245 0 0 1 219.2 100 A 109.221 109.221 0 0 1 213.644 99.866 Q 211.113 99.737 208.866 99.483 A 61.808 61.808 0 0 1 207.4 99.3 Q 202.3 98.6 197.6 96.8 L 197.6 80.9 Q 202.6 83 207.1 84.05 Q 211.6 85.1 218.1 85.1 A 23.893 23.893 0 0 0 222.153 84.787 Q 229.411 83.531 229.595 77.231 A 11.344 11.344 0 0 0 229.6 76.9 L 229.6 75.9 Q 229.6 73 230.2 69 L 229.6 69 A 16.46 16.46 0 0 1 225.655 73.576 A 19.93 19.93 0 0 1 224.2 74.65 A 12.871 12.871 0 0 1 220.293 76.375 Q 218.601 76.824 216.607 76.951 A 25.431 25.431 0 0 1 215 77 A 16.824 16.824 0 0 1 202.127 71.411 A 22.037 22.037 0 0 1 200.7 69.7 A 23.888 23.888 0 0 1 197.139 62.663 Q 196.056 59.339 195.578 55.278 A 58.943 58.943 0 0 1 195.2 48.4 A 56.075 56.075 0 0 1 195.733 40.393 Q 196.321 36.327 197.558 33.031 A 23.304 23.304 0 0 1 200.8 27.05 A 19.36 19.36 0 0 1 206.058 22.19 A 17.327 17.327 0 0 1 215.3 19.7 A 24.506 24.506 0 0 1 219.022 19.966 Q 221.032 20.275 222.682 20.944 A 12.297 12.297 0 0 1 224.65 21.95 A 19.307 19.307 0 0 1 229.68 26.494 A 18.345 18.345 0 0 1 230.4 27.5 Z M 231.1 50.4 L 231.1 48.1 A 38.922 38.922 0 0 0 230.933 44.369 Q 230.572 40.634 229.43 38.216 A 11.082 11.082 0 0 0 229.35 38.05 Q 227.6 34.5 222.5 34.5 A 6.504 6.504 0 0 0 216.28 38.623 Q 214.6 42.151 214.6 48.7 A 41.121 41.121 0 0 0 214.741 52.239 Q 215.044 55.727 215.995 57.901 A 8.486 8.486 0 0 0 216.6 59.05 A 6.5 6.5 0 0 0 221.302 62.089 A 9.718 9.718 0 0 0 222.8 62.2 Q 225.726 62.2 227.528 61.057 A 5.508 5.508 0 0 0 229.3 59.25 A 10.069 10.069 0 0 0 230.325 56.873 Q 231.023 54.531 231.092 51.159 A 36.816 36.816 0 0 0 231.1 50.4 Z" id="3"/><path d="M 312.9 45 L 312.9 53.5 L 278.8 53.5 A 10.472 10.472 0 0 0 279.764 57.536 A 9.883 9.883 0 0 0 282.05 60.6 A 9.798 9.798 0 0 0 285.753 62.689 Q 287.247 63.167 289.057 63.323 A 21.369 21.369 0 0 0 290.9 63.4 A 46.987 46.987 0 0 0 296.318 63.101 A 36.723 36.723 0 0 0 300.4 62.4 A 40.19 40.19 0 0 0 305.892 60.681 A 50.054 50.054 0 0 0 309.3 59.2 L 309.3 72.9 A 33.144 33.144 0 0 1 301.726 75.733 A 37.555 37.555 0 0 1 300.55 76 Q 297.099 76.727 292.354 76.925 A 89.883 89.883 0 0 1 288.6 77 Q 280.2 77 273.65 74.05 Q 267.1 71.1 263.3 64.8 Q 259.982 59.3 259.561 51.132 A 47.234 47.234 0 0 1 259.5 48.7 A 47.756 47.756 0 0 1 259.946 41.977 Q 260.454 38.404 261.544 35.438 A 24.161 24.161 0 0 1 262.95 32.3 A 22.753 22.753 0 0 1 268.631 25.329 A 21.67 21.67 0 0 1 272.55 22.8 A 28.613 28.613 0 0 1 281.23 20.1 A 37.395 37.395 0 0 1 286.8 19.7 Q 298.9 19.7 305.9 26 Q 312.9 32.3 312.9 45 Z M 279.2 41.5 L 295.6 41.5 A 11.51 11.51 0 0 0 295.082 38.296 A 9.366 9.366 0 0 0 293.45 35.25 A 6.642 6.642 0 0 0 289.338 32.86 A 10.054 10.054 0 0 0 287.5 32.7 A 9.043 9.043 0 0 0 284.7 33.116 A 7.532 7.532 0 0 0 281.85 34.8 A 7.127 7.127 0 0 0 280.235 37.116 Q 279.767 38.155 279.494 39.458 A 17.283 17.283 0 0 0 279.2 41.5 Z" id="4"/><path d="M 360 60 L 360 73.9 A 47.143 47.143 0 0 1 354.376 75.839 A 52.743 52.743 0 0 1 353.4 76.1 A 24.864 24.864 0 0 1 350.508 76.648 Q 349.027 76.846 347.311 76.933 A 55.913 55.913 0 0 1 344.5 77 A 29.073 29.073 0 0 1 339.883 76.651 A 21.109 21.109 0 0 1 335.05 75.3 A 12.65 12.65 0 0 1 329.147 70.207 A 15.957 15.957 0 0 1 328.7 69.45 A 15.68 15.68 0 0 1 327.301 65.877 Q 326.4 62.495 326.4 57.8 L 326.4 35 L 319.7 35 L 319.7 27.2 L 328.2 21.2 L 333.1 9.6 L 345.6 9.6 L 345.6 20.7 L 359.2 20.7 L 359.2 35 L 345.6 35 L 345.6 56.5 A 8.102 8.102 0 0 0 345.849 58.604 Q 346.738 61.9 350.8 61.9 Q 353.4 61.9 355.55 61.35 Q 357.7 60.8 360 60 Z" id="5"/><path d="M 446.3 76 L 427.9 76 L 413.3 24.6 L 412.9 24.6 Q 413.1 26.6 413.3 30 Q 413.5 33.4 413.7 37.35 Q 413.9 41.3 413.9 45 L 413.9 76 L 396.8 76 L 396.8 4.6 L 422.5 4.6 L 437.4 55.3 L 437.8 55.3 L 452.4 4.6 L 478.1 4.6 L 478.1 76 L 460.4 76 L 460.4 44.7 Q 460.4 41.3 460.5 37.45 Q 460.6 33.6 460.8 30.15 Q 460.953 27.509 461.048 25.717 A 372.43 372.43 0 0 0 461.1 24.7 L 460.7 24.7 L 446.3 76 Z" id="7"/><path d="M 541.7 39.7 L 541.7 76 L 528.5 76 L 524.8 68.7 L 524.4 68.7 Q 522.1 71.6 519.65 73.45 A 15.891 15.891 0 0 1 514.788 75.922 A 18.435 18.435 0 0 1 514 76.15 A 22.872 22.872 0 0 1 511.169 76.7 Q 509.77 76.888 508.179 76.958 A 44.919 44.919 0 0 1 506.2 77 A 19.38 19.38 0 0 1 500.216 76.112 A 16.153 16.153 0 0 1 494.2 72.6 A 13.695 13.695 0 0 1 490.49 66.706 Q 489.4 63.437 489.4 59.1 Q 489.4 50.2 495.55 45.9 Q 501.7 41.6 513.4 41.1 L 522.6 40.8 L 522.6 40 A 11.958 11.958 0 0 0 522.465 38.137 Q 522.315 37.183 521.995 36.431 A 4.5 4.5 0 0 0 520.8 34.75 A 6.083 6.083 0 0 0 518.374 33.499 Q 517.471 33.256 516.402 33.211 A 11.776 11.776 0 0 0 515.9 33.2 A 22.355 22.355 0 0 0 512.429 33.487 Q 510.602 33.774 508.6 34.35 A 63.501 63.501 0 0 0 501.651 36.807 A 71.071 71.071 0 0 0 500.5 37.3 L 495 24.7 A 38.845 38.845 0 0 1 501.838 21.957 A 47.742 47.742 0 0 1 505.85 20.95 A 58.607 58.607 0 0 1 512.687 19.975 A 78.503 78.503 0 0 1 519.4 19.7 Q 527.394 19.7 532.722 22.714 A 18.174 18.174 0 0 1 535.8 24.9 Q 541.7 30.1 541.7 39.7 Z M 522.7 51.3 L 518.3 51.5 Q 513.1 51.7 510.95 53.35 A 5.36 5.36 0 0 0 508.834 57.271 A 7.713 7.713 0 0 0 508.8 58 A 8.321 8.321 0 0 0 508.932 59.535 Q 509.096 60.407 509.463 61.082 A 3.977 3.977 0 0 0 510.3 62.15 A 5.097 5.097 0 0 0 512.616 63.322 A 7.524 7.524 0 0 0 514.3 63.5 A 9.232 9.232 0 0 0 517.619 62.92 A 8.397 8.397 0 0 0 520.25 61.3 A 7.226 7.226 0 0 0 522.69 56.032 A 9.664 9.664 0 0 0 522.7 55.6 L 522.7 51.3 Z" id="8"/><path d="M 608.7 40 L 608.7 76 L 589.6 76 L 589.6 45.8 A 30.575 30.575 0 0 0 589.473 42.92 Q 589.187 39.897 588.249 37.972 A 8.092 8.092 0 0 0 588 37.5 Q 586.4 34.7 582.9 34.7 A 10.141 10.141 0 0 0 580.109 35.058 A 6.639 6.639 0 0 0 575.65 39.1 Q 573.975 43.084 573.817 50.266 A 69.631 69.631 0 0 0 573.8 51.8 L 573.8 76 L 554.7 76 L 554.7 20.7 L 569.1 20.7 L 571.7 28 L 572.4 28 Q 575 24.1 579.25 21.9 A 19.201 19.201 0 0 1 584.841 20.064 A 26.154 26.154 0 0 1 589.3 19.7 A 25.158 25.158 0 0 1 595.53 20.432 A 18.315 18.315 0 0 1 603.3 24.5 A 14.517 14.517 0 0 1 607.242 30.475 Q 608.108 32.83 608.459 35.746 A 35.595 35.595 0 0 1 608.7 40 Z" id="9"/><path d="M 671 39.7 L 671 76 L 657.8 76 L 654.1 68.7 L 653.7 68.7 Q 651.4 71.6 648.95 73.45 A 15.891 15.891 0 0 1 644.088 75.922 A 18.435 18.435 0 0 1 643.3 76.15 A 22.872 22.872 0 0 1 640.469 76.7 Q 639.07 76.888 637.479 76.958 A 44.919 44.919 0 0 1 635.5 77 A 19.38 19.38 0 0 1 629.516 76.112 A 16.153 16.153 0 0 1 623.5 72.6 A 13.695 13.695 0 0 1 619.79 66.706 Q 618.7 63.437 618.7 59.1 Q 618.7 50.2 624.85 45.9 Q 631 41.6 642.7 41.1 L 651.9 40.8 L 651.9 40 A 11.958 11.958 0 0 0 651.765 38.137 Q 651.615 37.183 651.295 36.431 A 4.5 4.5 0 0 0 650.1 34.75 A 6.083 6.083 0 0 0 647.674 33.499 Q 646.771 33.256 645.702 33.211 A 11.776 11.776 0 0 0 645.2 33.2 A 22.355 22.355 0 0 0 641.729 33.487 Q 639.902 33.774 637.9 34.35 A 63.501 63.501 0 0 0 630.951 36.807 A 71.071 71.071 0 0 0 629.8 37.3 L 624.3 24.7 A 38.845 38.845 0 0 1 631.138 21.957 A 47.742 47.742 0 0 1 635.15 20.95 A 58.607 58.607 0 0 1 641.987 19.975 A 78.503 78.503 0 0 1 648.7 19.7 Q 656.694 19.7 662.022 22.714 A 18.174 18.174 0 0 1 665.1 24.9 Q 671 30.1 671 39.7 Z M 652 51.3 L 647.6 51.5 Q 642.4 51.7 640.25 53.35 A 5.36 5.36 0 0 0 638.134 57.271 A 7.713 7.713 0 0 0 638.1 58 A 8.321 8.321 0 0 0 638.232 59.535 Q 638.396 60.407 638.763 61.082 A 3.977 3.977 0 0 0 639.6 62.15 A 5.097 5.097 0 0 0 641.916 63.322 A 7.524 7.524 0 0 0 643.6 63.5 A 9.232 9.232 0 0 0 646.919 62.92 A 8.397 8.397 0 0 0 649.55 61.3 A 7.226 7.226 0 0 0 651.99 56.032 A 9.664 9.664 0 0 0 652 55.6 L 652 51.3 Z" id="10"/><path d="M 716.8 27.5 L 717.2 27.5 L 718.6 20.7 L 735.1 20.7 L 735.1 76.1 Q 735.1 87.8 727.85 93.9 A 22.478 22.478 0 0 1 720.721 97.835 Q 717.435 98.985 713.373 99.524 A 59.245 59.245 0 0 1 705.6 100 A 109.221 109.221 0 0 1 700.044 99.866 Q 697.512 99.737 695.266 99.483 A 61.808 61.808 0 0 1 693.8 99.3 Q 688.7 98.6 684 96.8 L 684 80.9 Q 689 83 693.5 84.05 Q 698 85.1 704.5 85.1 A 23.893 23.893 0 0 0 708.553 84.787 Q 715.811 83.531 715.995 77.231 A 11.344 11.344 0 0 0 716 76.9 L 716 75.9 Q 716 73 716.6 69 L 716 69 A 16.46 16.46 0 0 1 712.055 73.576 A 19.93 19.93 0 0 1 710.6 74.65 A 12.871 12.871 0 0 1 706.693 76.375 Q 705.001 76.824 703.007 76.951 A 25.431 25.431 0 0 1 701.4 77 A 16.824 16.824 0 0 1 688.527 71.411 A 22.037 22.037 0 0 1 687.1 69.7 A 23.888 23.888 0 0 1 683.539 62.663 Q 682.456 59.339 681.978 55.278 A 58.943 58.943 0 0 1 681.6 48.4 A 56.075 56.075 0 0 1 682.133 40.393 Q 682.721 36.327 683.958 33.031 A 23.304 23.304 0 0 1 687.2 27.05 A 19.36 19.36 0 0 1 692.458 22.19 A 17.327 17.327 0 0 1 701.7 19.7 A 24.506 24.506 0 0 1 705.422 19.966 Q 707.432 20.275 709.082 20.944 A 12.297 12.297 0 0 1 711.05 21.95 A 19.307 19.307 0 0 1 716.08 26.494 A 18.345 18.345 0 0 1 716.8 27.5 Z M 717.5 50.4 L 717.5 48.1 A 38.922 38.922 0 0 0 717.333 44.369 Q 716.972 40.634 715.83 38.216 A 11.082 11.082 0 0 0 715.75 38.05 Q 714 34.5 708.9 34.5 A 6.504 6.504 0 0 0 702.68 38.623 Q 701 42.151 701 48.7 A 41.121 41.121 0 0 0 701.141 52.239 Q 701.444 55.727 702.395 57.901 A 8.486 8.486 0 0 0 703 59.05 A 6.5 6.5 0 0 0 707.702 62.089 A 9.718 9.718 0 0 0 709.2 62.2 Q 712.126 62.2 713.928 61.057 A 5.508 5.508 0 0 0 715.7 59.25 A 10.069 10.069 0 0 0 716.725 56.873 Q 717.423 54.531 717.492 51.159 A 36.816 36.816 0 0 0 717.5 50.4 Z" id="11"/><path d="M 799.3 45 L 799.3 53.5 L 765.2 53.5 A 10.472 10.472 0 0 0 766.164 57.536 A 9.883 9.883 0 0 0 768.45 60.6 A 9.798 9.798 0 0 0 772.153 62.689 Q 773.647 63.167 775.457 63.323 A 21.369 21.369 0 0 0 777.3 63.4 A 46.987 46.987 0 0 0 782.718 63.101 A 36.723 36.723 0 0 0 786.8 62.4 A 40.19 40.19 0 0 0 792.292 60.681 A 50.054 50.054 0 0 0 795.7 59.2 L 795.7 72.9 A 33.144 33.144 0 0 1 788.126 75.733 A 37.555 37.555 0 0 1 786.95 76 Q 783.499 76.727 778.754 76.925 A 89.883 89.883 0 0 1 775 77 Q 766.6 77 760.05 74.05 Q 753.5 71.1 749.7 64.8 Q 746.382 59.3 745.961 51.132 A 47.234 47.234 0 0 1 745.9 48.7 A 47.756 47.756 0 0 1 746.346 41.977 Q 746.854 38.404 747.944 35.438 A 24.161 24.161 0 0 1 749.35 32.3 A 22.753 22.753 0 0 1 755.031 25.329 A 21.67 21.67 0 0 1 758.95 22.8 A 28.613 28.613 0 0 1 767.63 20.1 A 37.395 37.395 0 0 1 773.2 19.7 Q 785.3 19.7 792.3 26 Q 799.3 32.3 799.3 45 Z M 765.6 41.5 L 782 41.5 A 11.51 11.51 0 0 0 781.482 38.296 A 9.366 9.366 0 0 0 779.85 35.25 A 6.642 6.642 0 0 0 775.738 32.86 A 10.054 10.054 0 0 0 773.9 32.7 A 9.043 9.043 0 0 0 771.1 33.116 A 7.532 7.532 0 0 0 768.25 34.8 A 7.127 7.127 0 0 0 766.635 37.116 Q 766.167 38.155 765.894 39.458 A 17.283 17.283 0 0 0 765.6 41.5 Z" id="12"/><path d="M 849.3 20.3 L 847.6 38.3 Q 846.6 38.1 845.15 37.9 A 16.804 16.804 0 0 0 844.146 37.796 Q 843.073 37.713 841.595 37.702 A 63.323 63.323 0 0 0 841.1 37.7 A 18.756 18.756 0 0 0 838.289 37.921 A 24.196 24.196 0 0 0 835.95 38.4 A 8.931 8.931 0 0 0 831.679 40.922 A 11.126 11.126 0 0 0 831.2 41.45 Q 829.238 43.755 829.201 48.611 A 24.626 24.626 0 0 0 829.2 48.8 L 829.2 76 L 810.1 76 L 810.1 20.7 L 824.3 20.7 L 827.3 29.5 L 828.2 29.5 A 20.406 20.406 0 0 1 833.888 23.095 A 23.86 23.86 0 0 1 834.65 22.55 A 16.155 16.155 0 0 1 839.842 20.152 A 14.833 14.833 0 0 1 843.5 19.7 Q 845.1 19.7 846.8 19.9 A 45.461 45.461 0 0 1 847.594 20 Q 848.394 20.108 848.929 20.217 A 8.507 8.507 0 0 1 849.3 20.3 Z" id="13"/></g></svg>